# xmcd
#
# Track frame offsets: 
#        150
#        14661
#        27833
#        41192
#        55206
#        71314
#        87916
#        103399
#        118378
#        133525
#        147024
#        160403
#        173794
#        186579
#        199422
#        212079
#        225568
#        238353
#        252399
#        265868
#        277722
#        290489
#        305586
#
# Disc length: 4207 seconds
#
# Revision: 1
# Processed by: cddbd v1.5.2PL0 Copyright (c) Steve Scherf et al.
# Submitted via: ExactAudioCopyFreeDBPlugin 1.0
#
DISCID=66106d17
DTITLE=Coot Grant and Kid Wilson - Complete Recorded Works Vol. 3 (193
DTITLE=1-1938)
DYEAR=1997
DGENRE=Blues
TTITLE0=I Don't Want That Stale Stuff
TTITLE1=You Can't Do That to Me
TTITLE2=Keep Your Hands Off My Mojo
TTITLE3=Do Your Duty
TTITLE4=I Can't Get Enough
TTITLE5=Jive Lover
TTITLE6=Dirty Spoon Blues
TTITLE7=Water Trough Blues
TTITLE8=Toot It, Brother Armstrong [12824]
TTITLE9=Lollypop
TTITLE10=Meat Cuttin' Blues
TTITLE11=Whippin' the Wolf
TTITLE12=Take It Outa Here
TTITLE13=Save a Little Bit for Me
TTITLE14=Lay Your Racket Down
TTITLE15=Take Me for a Buggy Ride
TTITLE16=Do It Again
TTITLE17=Hot Papa, That Out
TTITLE18=Daddy What You Done to Me
TTITLE19=Uncle Joe [63873]
TTITLE20=I Am a Woman
TTITLE21=Toot It, Brother Armstrong [63875]
TTITLE22=Blue Monday on Sugar Hill
EXTD=Document DOCD-5565
EXTT0=
EXTT1=
EXTT2=
EXTT3=
EXTT4=
EXTT5=
EXTT6=
EXTT7=
EXTT8=
EXTT9=
EXTT10=
EXTT11=
EXTT12=
EXTT13=
EXTT14=
EXTT15=
EXTT16=
EXTT17=
EXTT18=
EXTT19=
EXTT20=
EXTT21=
EXTT22=
PLAYORDER=
